<svg id="Layer_1" data-name="Layer 1" xmlns="http://www.w3.org/2000/svg" viewBox="0 0 512 512"><path d="M246.56,190.48,236.1,356.42a5,5,0,0,0,0,.66,21.33,21.33,0,0,0,36.43,15.07,21.63,21.63,0,0,0,6.21-15.79L267.85,190.44a10.67,10.67,0,0,0-21.29,0Z"/><path d="M256,85.33c-141.17,0-256,114.85-256,256a255.41,255.41,0,0,0,12.17,77.92,10.66,10.66,0,0,0,10.16,7.42H489.67a10.66,10.66,0,0,0,10.16-7.42A255.41,255.41,0,0,0,512,341.33C512,200.18,397.17,85.33,256,85.33ZM458.67,352h31.26a233.89,233.89,0,0,1-8.18,53.33H30.25A233.89,233.89,0,0,1,22.07,352H53.33a10.67,10.67,0,1,0,0-21.33H21.87a232.79,232.79,0,0,1,26-97.21l27.32,15.78a10.67,10.67,0,0,0,10.67-18.48L58.55,215a236.23,236.23,0,0,1,71.14-71.13l15.75,27.28a10.66,10.66,0,1,0,18.45-10.67l-15.77-27.33a232.79,232.79,0,0,1,97.21-25.95v31.46a10.67,10.67,0,0,0,21.34,0V107.21a232.79,232.79,0,0,1,97.21,26L348.1,160.49a10.66,10.66,0,1,0,18.46,10.67l15.75-27.28A236.23,236.23,0,0,1,453.45,215l-27.26,15.75a10.67,10.67,0,1,0,10.66,18.48l27.33-15.78a232.78,232.78,0,0,1,25.94,97.21H458.67a10.67,10.67,0,1,0,0,21.33Z"/></svg>