<?xml version="1.0" encoding="UTF-8"?>
<svg xmlns="http://www.w3.org/2000/svg" xmlns:xlink="http://www.w3.org/1999/xlink" width="480pt" height="600pt" viewBox="0 0 240 300" version="1.1">
<g id="surface1">
<path style=" stroke:none;fill-rule:nonzero;fill:rgb(28.627451%,77.254902%,71.372549%);fill-opacity:1;" d="M 120 19.199219 C 90.839844 19.199219 67.199219 42.839844 67.199219 72 C 67.199219 101.160156 90.839844 124.800781 120 124.800781 C 149.160156 124.800781 172.800781 101.160156 172.800781 72 C 172.800781 42.839844 149.160156 19.199219 120 19.199219 Z M 115.199219 134.25 L 115.199219 220.800781 C 115.175781 222.53125 116.085938 224.140625 117.582031 225.015625 C 119.074219 225.886719 120.925781 225.886719 122.417969 225.015625 C 123.914062 224.140625 124.824219 222.53125 124.800781 220.800781 L 124.800781 134.25 C 123.214844 134.371094 121.613281 134.398438 120 134.398438 C 118.386719 134.398438 116.785156 134.371094 115.199219 134.25 Z M 115.199219 134.25 "/>
<g style="fill:rgb(0%,0%,0%);fill-opacity:1;">
  <use xlink:href="#glyph0-1" x="0" y="276"/>
  <use xlink:href="#glyph0-2" x="8.667187" y="276"/>
  <use xlink:href="#glyph0-3" x="13.338281" y="276"/>
  <use xlink:href="#glyph0-4" x="20.013281" y="276"/>
  <use xlink:href="#glyph0-5" x="26.688281" y="276"/>
  <use xlink:href="#glyph0-3" x="30.684375" y="276"/>
  <use xlink:href="#glyph0-6" x="37.359375" y="276"/>
  <use xlink:href="#glyph0-7" x="44.690625" y="276"/>
  <use xlink:href="#glyph0-8" x="48.025781" y="276"/>
  <use xlink:href="#glyph0-9" x="55.357031" y="276"/>
  <use xlink:href="#glyph0-7" x="62.032031" y="276"/>
  <use xlink:href="#glyph0-10" x="65.367188" y="276"/>
  <use xlink:href="#glyph0-11" x="68.702344" y="276"/>
  <use xlink:href="#glyph0-12" x="75.377344" y="276"/>
  <use xlink:href="#glyph0-13" x="82.708594" y="276"/>
  <use xlink:href="#glyph0-14" x="90.039844" y="276"/>
  <use xlink:href="#glyph0-7" x="96.714844" y="276"/>
  <use xlink:href="#glyph0-15" x="100.05" y="276"/>
  <use xlink:href="#glyph0-4" x="108.717187" y="276"/>
  <use xlink:href="#glyph0-16" x="115.392187" y="276"/>
  <use xlink:href="#glyph0-4" x="121.392187" y="276"/>
  <use xlink:href="#glyph0-4" x="128.067187" y="276"/>
  <use xlink:href="#glyph0-2" x="134.742188" y="276"/>
</g>
<g style="fill:rgb(0%,0%,0%);fill-opacity:1;">
  <use xlink:href="#glyph0-17" x="0" y="288"/>
  <use xlink:href="#glyph0-2" x="3.996094" y="288"/>
  <use xlink:href="#glyph0-12" x="8.667187" y="288"/>
  <use xlink:href="#glyph0-18" x="15.998437" y="288"/>
  <use xlink:href="#glyph0-7" x="26.669531" y="288"/>
  <use xlink:href="#glyph0-5" x="30.004687" y="288"/>
  <use xlink:href="#glyph0-19" x="34.000781" y="288"/>
  <use xlink:href="#glyph0-3" x="41.332031" y="288"/>
  <use xlink:href="#glyph0-7" x="48.007031" y="288"/>
  <use xlink:href="#glyph0-20" x="51.342188" y="288"/>
  <use xlink:href="#glyph0-12" x="60.009375" y="288"/>
  <use xlink:href="#glyph0-21" x="67.340625" y="288"/>
  <use xlink:href="#glyph0-13" x="74.671875" y="288"/>
  <use xlink:href="#glyph0-7" x="82.003125" y="288"/>
  <use xlink:href="#glyph0-22" x="85.338281" y="288"/>
  <use xlink:href="#glyph0-2" x="93.342187" y="288"/>
  <use xlink:href="#glyph0-12" x="98.013281" y="288"/>
  <use xlink:href="#glyph0-23" x="105.344531" y="288"/>
  <use xlink:href="#glyph0-3" x="108.679688" y="288"/>
  <use xlink:href="#glyph0-11" x="115.354687" y="288"/>
  <use xlink:href="#glyph0-5" x="122.029687" y="288"/>
</g>
</g>
</svg>
