<svg id="Capa_1" enable-background="new 0 0 512 512" height="512" viewBox="0 0 512 512" width="512" xmlns="http://www.w3.org/2000/svg"><g><g><path d="m153.267 108.589c-4.204 0-7.612-3.407-7.612-7.612v-45.787c0-4.204 3.408-7.612 7.612-7.612s7.612 3.407 7.612 7.612v45.787c0 4.205-3.408 7.612-7.612 7.612z" fill="#dbedff"/></g><g><g><path d="m379.34 73.809h-233.959c-4.204 0-7.612-3.407-7.612-7.612s3.408-7.612 7.612-7.612h233.959c4.204 0 7.612 3.407 7.612 7.612s-3.408 7.612-7.612 7.612z" fill="#f87c68"/></g></g><g><path d="m398.875 35.856c-4.204 0-7.612-3.407-7.612-7.612v-20.632c0-4.204 3.408-7.612 7.612-7.612s7.612 3.407 7.612 7.612v20.633c-.001 4.204-3.408 7.611-7.612 7.611z" fill="#dbedff"/></g><g><path d="m165.054 341.776h-23.573c-4.204 0-7.612-3.407-7.612-7.612s3.408-7.612 7.612-7.612h23.573c4.204 0 7.612 3.407 7.612 7.612s-3.409 7.612-7.612 7.612z" fill="#dbedff"/></g><g><path d="m153.267 364.309c-4.204 0-7.612-3.407-7.612-7.612v-52.065c0-4.204 3.408-7.612 7.612-7.612s7.612 3.407 7.612 7.612v52.065c0 4.204-3.408 7.612-7.612 7.612z" fill="#dbedff"/></g><path d="m125.535 281.201v17.951c0 6.864 5.616 12.48 12.48 12.48h30.506c6.864 0 12.48-5.616 12.48-12.48v-17.951z" fill="#f4dd45"/><path d="m413.282 23.732h-28.813c-5.86 0-10.655 4.761-10.655 10.581v49.037c0 5.819 4.795 10.581 10.655 10.581h28.813c5.86 0 10.655-4.761 10.655-10.581v-49.038c0-5.819-4.795-10.58-10.655-10.58z" fill="#f87c68"/><path d="m398.875 83.349v-49.037c0-5.82 4.795-10.581 10.655-10.581h-25.062c-5.86 0-10.655 4.761-10.655 10.581v49.037c0 5.819 4.795 10.581 10.655 10.581h25.062c-5.86 0-10.655-4.761-10.655-10.581z" fill="#ec625e"/><path d="m409.535 93.93h-247.83c-39.775 0-72.018 32.244-72.018 72.018v96.213c0 12.197 9.887 22.084 22.084 22.084h82.994c12.197 0 22.084-9.887 22.084-22.084v-21.855c0-10.612 8.602-19.214 19.214-19.214h99.114c10.611 0 19.214 8.602 19.214 19.214v130.182h127.163v-204.54c-.001-39.774-32.245-72.018-72.019-72.018z" fill="#7fb3fa"/><g fill="#64a6f4"><path d="m125.535 262.161v-96.213c0-39.774 32.244-72.018 72.018-72.018h-35.849c-39.775 0-72.018 32.244-72.018 72.018v96.213c0 12.197 9.887 22.084 22.084 22.084h35.849c-12.197 0-22.084-9.887-22.084-22.084z"/><path d="m371.025 221.093h-35.849c10.611 0 19.214 8.602 19.214 19.214v130.182h35.849v-130.183c0-10.611-8.602-19.213-19.214-19.213z"/><path d="m140.874 246.113c6.844 0 12.393-5.548 12.393-12.393v-80.078c0-6.845-5.549-12.393-12.393-12.393h-46.84c-2.813 7.704-4.349 16.022-4.349 24.699v80.165z"/></g><path d="m125.535 165.948c0-8.677 1.536-16.996 4.349-24.699h-35.849c-2.959 8.224-4.347 16.605-4.348 24.68v.019 80.165h35.849v-80.165z" fill="#3d8bd8"/><circle cx="441.835" cy="220.711" fill="#477b9e" r="56.48"/><path d="m418.508 220.711c0-25.424 16.8-46.919 39.903-54.003-5.242-1.607-10.807-2.477-16.576-2.477-31.193 0-56.48 25.287-56.48 56.48s25.287 56.48 56.48 56.48c5.769 0 11.334-.87 16.576-2.477-23.103-7.084-39.903-28.58-39.903-54.003z" fill="#3f6d8e"/><circle cx="441.835" cy="220.711" fill="#3f6d8e" r="26.705"/><path d="m441.835 220.711c0-9.883 5.373-18.506 13.353-23.124-3.929-2.274-8.487-3.582-13.353-3.582-14.749 0-26.705 11.956-26.705 26.705s11.956 26.705 26.705 26.705c4.866 0 9.424-1.308 13.353-3.582-7.98-4.617-13.353-13.239-13.353-23.122z" fill="#365e7d"/><g><g><path d="m190.88 164.981c-4.204 0-7.612-3.407-7.612-7.612v-16.12c0-4.204 3.408-7.612 7.612-7.612s7.612 3.407 7.612 7.612v16.12c-.001 4.204-3.408 7.612-7.612 7.612z" fill="#3d8bd8"/></g></g><g><g><path d="m216.228 164.981c-4.204 0-7.612-3.407-7.612-7.612v-16.12c0-4.204 3.408-7.612 7.612-7.612s7.612 3.407 7.612 7.612v16.12c0 4.204-3.408 7.612-7.612 7.612z" fill="#3d8bd8"/></g></g><g><g><path d="m241.577 164.981c-4.204 0-7.612-3.407-7.612-7.612v-16.12c0-4.204 3.408-7.612 7.612-7.612s7.612 3.407 7.612 7.612v16.12c-.001 4.204-3.409 7.612-7.612 7.612z" fill="#3d8bd8"/></g></g><g><g><path d="m266.925 164.981c-4.204 0-7.612-3.407-7.612-7.612v-16.12c0-4.204 3.408-7.612 7.612-7.612s7.612 3.407 7.612 7.612v16.12c-.001 4.204-3.409 7.612-7.612 7.612z" fill="#3d8bd8"/></g></g><path d="m197.79 367.443h283.763v103.12h-283.763z" fill="#b5dcff"/><path d="m66.181 367.443h-18.211c-8.855 0-16.033 7.263-16.033 16.222v86.898h34.244z" fill="#8bcaff"/><path d="m66.181 501.687v-32.326h-41.055c-6.292 0-11.44 5.148-11.44 11.44v19.76c0 6.292 5.148 11.44 11.44 11.44h51.368c-5.696-.001-10.313-4.618-10.313-10.314z" fill="#dbedff"/><path d="m486.875 469.361h-289.085v32.326c0 5.696-4.617 10.313-10.313 10.313h299.398c6.292 0 11.44-5.148 11.44-11.44v-19.76c-.001-6.291-5.149-11.439-11.44-11.439z" fill="#dbedff"/><path d="m66.181 501.687v-11.006h-41.056c-6.028 0-10.994-4.73-11.4-10.66-.018.259-.04.517-.04.78v19.76c0 6.292 5.148 11.44 11.44 11.44h51.368c-5.695-.001-10.312-4.618-10.312-10.314z" fill="#b5dcff"/><path d="m486.875 490.681h-289.085v11.006c0 5.696-4.617 10.313-10.313 10.313h299.398c6.292 0 11.44-5.148 11.44-11.44v-19.76c0-.263-.022-.521-.04-.78-.406 5.931-5.372 10.661-11.4 10.661z" fill="#b5dcff"/><path d="m193.566 356.697h-120.117c-5.696 0-10.313 4.617-10.313 10.313v134.677c0 5.696 4.617 10.313 10.313 10.313h120.117c5.696 0 10.313-4.617 10.313-10.313v-134.677c.001-5.696-4.617-10.313-10.313-10.313z" fill="#f87c68"/><path d="m102.294 501.687v-134.677c0-5.696 4.617-10.313 10.313-10.313h-39.158c-5.696 0-10.313 4.617-10.313 10.313v134.677c0 5.696 4.618 10.313 10.313 10.313h39.158c-5.696 0-10.313-4.617-10.313-10.313z" fill="#ec625e"/><g><path d="m153.267 394.943c-4.204 0-7.612-3.407-7.612-7.612v-6.837c0-4.204 3.408-7.612 7.612-7.612s7.612 3.407 7.612 7.612v6.837c0 4.204-3.408 7.612-7.612 7.612z" fill="#ec625e"/></g><g><path d="m153.267 427.503c-4.204 0-7.612-3.407-7.612-7.612v-6.837c0-4.204 3.408-7.612 7.612-7.612s7.612 3.407 7.612 7.612v6.837c0 4.205-3.408 7.612-7.612 7.612z" fill="#ec625e"/></g><g><path d="m153.267 460.064c-4.204 0-7.612-3.407-7.612-7.612v-6.837c0-4.204 3.408-7.612 7.612-7.612s7.612 3.407 7.612 7.612v6.837c0 4.204-3.408 7.612-7.612 7.612z" fill="#ec625e"/></g><g><path d="m153.267 492.623c-4.204 0-7.612-3.407-7.612-7.612v-6.837c0-4.204 3.408-7.612 7.612-7.612s7.612 3.407 7.612 7.612v6.837c0 4.205-3.408 7.612-7.612 7.612z" fill="#ec625e"/></g></g></svg>